# This file uses meters as units for non-parametric coordinates.

mtllib tempLogPillar.mtl
g default
v -0.000002 46.702946 0.000000
v -0.000002 0.000000 0.000000
v 3.188480 45.435135 -2.316565
v 2.550850 46.702946 -1.853300
v 3.941179 45.435135 0.000000
v 3.153023 46.702946 -0.000004
v 3.188480 45.435135 2.316568
v 2.550846 46.702946 1.853300
v 1.217892 45.435135 3.748283
v 0.974335 46.702946 2.998705
v -1.189592 45.336555 3.661192
v -0.793547 46.604366 2.442284
v -3.188482 45.435135 2.316568
v -2.550852 46.702946 1.853300
v -3.941179 45.435135 0.000004
v -3.153021 46.702946 0.000000
v -2.655859 45.435135 -2.143503
v -2.018223 46.702946 -1.680243
v -1.217894 45.435131 -3.748283
v -0.974337 46.702946 -2.998705
v 1.217892 45.435131 -3.748283
v 0.974335 46.702946 -2.998705
v 3.188480 1.044812 -2.316568
v 2.550850 0.000000 -1.853300
v 3.941179 1.044813 0.000000
v 3.153023 0.000000 -0.000004
v 3.188480 1.044813 2.316568
v 2.550846 0.000000 1.853300
v 0.979910 1.044813 3.004711
v 0.736355 0.000000 2.255131
v -1.217894 1.044813 3.748283
v -0.974340 0.000000 2.998705
v -3.188482 1.044813 2.316568
v -2.550852 0.000000 1.853300
v -3.941179 1.044813 0.000000
v -3.153021 0.000000 0.000000
v -3.188482 1.044812 -2.316568
v -2.550848 0.000000 -1.853304
v -1.217894 1.044812 -3.748283
v -0.974337 -0.000001 -2.998705
v 1.217892 1.044812 -3.748283
v 0.974335 -0.000001 -2.998709
v -0.000002 0.000000 2.998705
v -0.000002 1.044813 3.748283
v 3.941179 1.518671 0.000000
v 3.188480 1.518647 -2.316565
v 1.217892 1.518670 -3.748283
v -1.217894 1.518668 -3.748283
v -3.188482 1.518670 -2.316568
v -3.941179 1.518669 0.000000
v -3.188482 1.518669 2.316568
v -1.217894 1.518671 3.748283
v 1.217892 2.766977 3.748283
v 3.188480 1.518671 2.316568
v 2.203184 1.044813 3.032423
v 1.762590 0.000000 2.426003
v 3.941179 44.830017 0.000000
v 3.188480 44.830017 2.316568
v 1.217892 44.846649 3.748283
v -1.217894 44.830017 3.748283
v -3.188482 44.830017 2.316568
v -3.941179 44.830017 0.000000
v -3.188482 44.830017 -2.316568
v -1.217894 44.830017 -3.748283
v 1.217892 44.830017 -3.748283
v 3.188480 44.830017 -2.316568
v -1.998934 46.702946 -2.254293
v -2.444836 45.435135 -2.856855
v -3.511864 45.435135 -1.321301
v -2.749041 46.702946 -1.243324
v -1.398363 46.702946 2.690634
v -1.733545 45.435135 3.373642
v -0.393393 45.435135 3.748283
v -0.461123 46.702946 2.998705
v 1.217892 22.470402 3.748284
v 0.324903 26.606085 3.748284
v 2.266474 26.364758 2.986445
v 1.217892 28.646692 3.165952
v 3.188480 25.542824 2.316569
v 3.941179 23.174343 0.000000
v 3.188480 23.174332 -2.316566
v 1.217892 23.174343 -3.748284
v -1.217894 23.716904 -3.748284
v -3.188482 23.174343 -2.316568
v -3.941179 23.174343 0.000000
v -3.188482 23.174343 2.316569
v -1.217894 23.174345 3.748284
v 3.188480 10.561194 2.316568
v 3.941179 9.669715 0.000000
v 3.188478 9.669695 -2.316565
v 1.217892 9.669715 -3.748283
v -1.217894 9.873929 -3.748283
v -3.941179 9.669713 0.000000
v -3.188482 9.669713 2.316568
v -1.217894 9.669715 3.748283
v 1.217892 10.175444 3.748283
v -3.188482 16.384495 -2.316568
v -3.188482 7.631953 -2.316568
v -1.936354 11.568134 -2.674498
v -3.376657 9.669715 -1.737427
v -2.623604 9.866776 -1.927523
vt 0.375000 0.315720
vt 0.377500 0.312500
vt 0.397500 0.312500
vt 0.400000 0.315720
vt 0.622500 0.312500
vt 0.625000 0.315720
vt 0.600000 0.315720
vt 0.602500 0.312500
vt 0.402500 0.312500
vt 0.422500 0.312500
vt 0.425000 0.315720
vt 0.427500 0.312500
vt 0.447500 0.312500
vt 0.450000 0.315720
vt 0.466538 0.315720
vt 0.467233 0.312500
vt 0.472500 0.312500
vt 0.475000 0.315720
vt 0.477500 0.312500
vt 0.482879 0.312500
vt 0.481542 0.315720
vt 0.500000 0.315720
vt 0.502500 0.312500
vt 0.522500 0.312500
vt 0.525000 0.315720
vt 0.539259 0.315720
vt 0.540917 0.312500
vt 0.547500 0.312500
vt 0.550000 0.315720
vt 0.552500 0.312500
vt 0.559502 0.312500
vt 0.559434 0.315720
vt 0.575000 0.315720
vt 0.577500 0.312500
vt 0.597500 0.312500
vt 0.625000 0.685220
vt 0.622500 0.688440
vt 0.602500 0.688440
vt 0.600000 0.685220
vt 0.377500 0.688440
vt 0.375000 0.685220
vt 0.400000 0.685220
vt 0.397500 0.688440
vt 0.402500 0.688440
vt 0.425000 0.685220
vt 0.422500 0.688440
vt 0.427500 0.688440
vt 0.437500 0.685220
vt 0.437500 0.688440
vt 0.462500 0.688440
vt 0.462500 0.685220
vt 0.475000 0.685220
vt 0.472500 0.688440
vt 0.477500 0.688440
vt 0.500000 0.685220
vt 0.497500 0.688440
vt 0.502500 0.688440
vt 0.525000 0.685220
vt 0.522500 0.688440
vt 0.527500 0.688440
vt 0.550000 0.685220
vt 0.547500 0.688440
vt 0.552500 0.688440
vt 0.575000 0.685220
vt 0.572500 0.688440
vt 0.577500 0.688440
vt 0.597500 0.688440
vt 0.375000 0.320590
vt 0.400000 0.320590
vt 0.400000 0.681405
vt 0.375000 0.681406
vt 0.425000 0.320591
vt 0.425000 0.681405
vt 0.450000 0.320591
vt 0.450000 0.681405
vt 0.475000 0.320590
vt 0.475000 0.681405
vt 0.500000 0.320591
vt 0.500000 0.681405
vt 0.525000 0.320590
vt 0.525000 0.681405
vt 0.550000 0.320591
vt 0.550000 0.681405
vt 0.575000 0.320590
vt 0.575000 0.681405
vt 0.600000 0.320591
vt 0.600000 0.681405
vt 0.625000 0.320591
vt 0.625000 0.681406
vt 0.538628 0.036115
vt 0.601130 0.081525
vt 0.500000 0.150000
vt 0.461372 0.036115
vt 0.398870 0.081525
vt 0.374997 0.155000
vt 0.381284 0.135649
vt 0.381418 0.174762
vt 0.461372 0.273885
vt 0.398870 0.228475
vt 0.538628 0.273885
vt 0.513201 0.273885
vt 0.560509 0.257988
vt 0.625003 0.155000
vt 0.601130 0.228475
vt 0.601130 0.915975
vt 0.538628 0.961385
vt 0.500000 0.837500
vt 0.461372 0.961385
vt 0.430121 0.938680
vt 0.386934 0.879238
vt 0.374997 0.842500
vt 0.398870 0.769025
vt 0.461372 0.723615
vt 0.538628 0.723615
vt 0.601130 0.769025
vt 0.625003 0.842500
vt 0.398870 0.915975
vt 0.452500 0.688440
vt 0.450000 0.685220
vt 0.447500 0.688440
vt 0.572500 0.312500
vt 0.527500 0.312500
vt 0.497500 0.312500
vt 0.452500 0.312500
vt 0.450000 0.512457
vt 0.459165 0.476943
vt 0.436697 0.478989
vt 0.450000 0.477283
vt 0.425000 0.481267
vt 0.400000 0.500997
vt 0.375000 0.500998
vt 0.625000 0.500998
vt 0.600000 0.500998
vt 0.575000 0.496478
vt 0.550000 0.500998
vt 0.525000 0.500997
vt 0.500000 0.500998
vt 0.475000 0.500997
vt 0.425000 0.606074
vt 0.400000 0.613501
vt 0.375000 0.613502
vt 0.625000 0.613502
vt 0.600000 0.613501
vt 0.575000 0.611800
vt 0.525000 0.613501
vt 0.500000 0.613501
vt 0.475000 0.613501
vt 0.450000 0.617881
vt 0.550000 0.557250
vt 0.550000 0.647453
vt 0.562500 0.612650
vt 0.537500 0.613501
vt 0.550000 0.610218
vn 0.447767 0.882234 -0.145489
vn 0.447767 0.882234 -0.145489
vn 0.447767 0.882234 -0.145489
vn 0.447767 0.882234 -0.145489
vn 0.276737 0.882233 -0.380896
vn 0.276737 0.882233 -0.380896
vn 0.276737 0.882233 -0.380896
vn 0.276737 0.882233 -0.380896
vn 0.447768 0.882234 0.145490
vn 0.447769 0.882233 0.145490
vn 0.447769 0.882233 0.145490
vn 0.447768 0.882234 0.145490
vn 0.276737 0.882234 0.380893
vn 0.276737 0.882234 0.380893
vn 0.276737 0.882234 0.380893
vn 0.276737 0.882234 0.380893
vn -0.331103 0.892132 0.307363
vn -0.331103 0.892132 0.307363
vn -0.331103 0.892132 0.307363
vn -0.331103 0.892132 0.307363
vn 0.138585 0.892709 0.428795
vn 0.138585 0.892709 0.428795
vn 0.138585 0.892709 0.428795
vn 0.138585 0.892709 0.428795
vn -0.447767 0.882234 0.145488
vn -0.447767 0.882234 0.145488
vn -0.447767 0.882234 0.145488
vn -0.447767 0.882234 0.145488
vn -0.326786 0.850647 -0.411839
vn -0.326786 0.850647 -0.411839
vn -0.326786 0.850647 -0.411839
vn -0.326786 0.850647 -0.411839
vn -0.529359 0.843097 -0.094699
vn -0.529359 0.843097 -0.094699
vn -0.529359 0.843097 -0.094699
vn -0.529359 0.843097 -0.094699
vn 0.000000 0.882233 -0.470814
vn 0.000000 0.882233 -0.470814
vn 0.000000 0.882233 -0.470814
vn 0.000000 0.882233 -0.470814
vn 0.276737 -0.882234 -0.380894
vn 0.276737 -0.882234 -0.380894
vn 0.276737 -0.882234 -0.380894
vn 0.276737 -0.882234 -0.380894
vn 0.447769 -0.882233 -0.145489
vn 0.447769 -0.882233 -0.145489
vn 0.447769 -0.882233 -0.145489
vn 0.447769 -0.882233 -0.145489
vn 0.447768 -0.882234 0.145490
vn 0.447768 -0.882234 0.145490
vn 0.447768 -0.882234 0.145490
vn 0.447768 -0.882234 0.145490
vn 0.276737 -0.882233 0.380895
vn 0.276737 -0.882233 0.380895
vn 0.276737 -0.882233 0.380895
vn 0.276737 -0.882233 0.380895
vn 0.000000 -0.882233 0.470814
vn 0.000000 -0.882233 0.470814
vn 0.000000 -0.882233 0.470814
vn 0.000000 -0.882233 0.470814
vn -0.276737 -0.882234 0.380894
vn -0.276737 -0.882234 0.380894
vn -0.276737 -0.882234 0.380894
vn -0.276737 -0.882234 0.380894
vn -0.447769 -0.882234 0.145488
vn -0.447769 -0.882234 0.145488
vn -0.447769 -0.882234 0.145488
vn -0.447769 -0.882234 0.145488
vn -0.447769 -0.882234 -0.145488
vn -0.447769 -0.882234 -0.145488
vn -0.447769 -0.882234 -0.145488
vn -0.447769 -0.882234 -0.145488
vn -0.276736 -0.882234 -0.380894
vn -0.276736 -0.882234 -0.380894
vn -0.276736 -0.882234 -0.380894
vn -0.276736 -0.882234 -0.380894
vn -0.000001 -0.882233 -0.470814
vn -0.000001 -0.882233 -0.470814
vn -0.000001 -0.882233 -0.470814
vn -0.000001 -0.882233 -0.470814
vn 0.951056 0.000000 -0.309017
vn 0.951056 0.000000 -0.309017
vn 0.951056 -0.000000 -0.309017
vn 0.951056 -0.000000 -0.309017
vn 0.951057 -0.000000 0.309016
vn 0.951057 -0.000000 0.309016
vn 0.951057 -0.000000 0.309017
vn 0.951057 -0.000000 0.309017
vn 0.587785 -0.000000 0.809017
vn 0.587785 -0.000000 0.809017
vn 0.587785 0.000000 0.809017
vn 0.587785 0.000000 0.809017
vn 0.000000 0.000000 1.000000
vn 0.000000 0.000000 1.000000
vn 0.000000 -0.000000 1.000000
vn 0.000000 -0.000000 1.000000
vn -0.587785 -0.000000 0.809017
vn -0.587785 -0.000000 0.809017
vn -0.587785 0.000000 0.809017
vn -0.587785 0.000000 0.809017
vn -0.951057 -0.000000 0.309016
vn -0.951057 -0.000000 0.309016
vn -0.951057 0.000000 0.309016
vn -0.951057 0.000000 0.309016
vn -0.951057 0.000000 -0.309016
vn -0.951057 0.000000 -0.309016
vn -0.951057 0.000000 -0.309016
vn -0.951057 0.000000 -0.309016
vn -0.587785 0.000000 -0.809017
vn -0.587785 0.000000 -0.809017
vn -0.587785 0.000000 -0.809017
vn -0.587785 0.000000 -0.809017
vn 0.000000 0.000000 -1.000000
vn 0.000000 0.000000 -1.000000
vn 0.000000 0.000000 -1.000000
vn 0.000000 0.000000 -1.000000
vn 0.587786 0.000000 -0.809017
vn 0.587786 0.000000 -0.809017
vn 0.587785 -0.000000 -0.809017
vn 0.587785 -0.000000 -0.809017
vn 0.000001 1.000000 0.000000
vn 0.000001 1.000000 0.000000
vn 0.000001 1.000000 0.000000
vn 0.000000 1.000000 0.000000
vn 0.000000 1.000000 0.000000
vn 0.000000 1.000000 0.000000
vn 0.000000 1.000000 0.000000
vn 0.000000 1.000000 0.000000
vn 0.000000 1.000000 0.000000
vn -0.229405 0.972692 -0.035277
vn -0.229405 0.972692 -0.035277
vn -0.229405 0.972692 -0.035277
vn 0.201784 0.973800 0.104871
vn 0.201784 0.973800 0.104871
vn 0.201784 0.973800 0.104871
vn 0.000000 1.000000 0.000000
vn 0.000000 1.000000 0.000000
vn 0.000000 1.000000 0.000000
vn 0.000000 1.000000 0.000000
vn 0.000000 1.000000 0.000000
vn 0.000000 1.000000 0.000000
vn 0.000000 1.000000 0.000000
vn 0.000000 1.000000 0.000000
vn 0.000000 1.000000 0.000000
vn 0.000000 1.000000 0.000000
vn 0.000000 1.000000 0.000000
vn 0.000000 1.000000 0.000000
vn 0.000000 1.000000 0.000000
vn 0.000000 1.000000 0.000000
vn 0.000000 1.000000 0.000000
vn 0.000000 -1.000000 -0.000000
vn 0.000000 -1.000000 -0.000000
vn 0.000000 -1.000000 -0.000000
vn -0.000001 -1.000000 -0.000000
vn -0.000001 -1.000000 -0.000000
vn -0.000001 -1.000000 -0.000000
vn 0.000003 -1.000000 -0.000000
vn 0.000003 -1.000000 -0.000000
vn 0.000003 -1.000000 -0.000000
vn 0.000000 -1.000000 -0.000000
vn 0.000000 -1.000000 -0.000000
vn 0.000000 -1.000000 -0.000000
vn 0.000000 -1.000000 -0.000000
vn 0.000000 -1.000000 -0.000000
vn 0.000000 -1.000000 -0.000000
vn 0.000000 -1.000000 -0.000000
vn 0.000000 -1.000000 -0.000000
vn 0.000000 -1.000000 -0.000000
vn 0.000000 -1.000000 -0.000000
vn 0.000000 -1.000000 -0.000000
vn 0.000000 -1.000000 -0.000000
vn 0.000000 -1.000000 -0.000000
vn 0.000000 -1.000000 -0.000000
vn 0.000000 -1.000000 -0.000000
vn 0.000000 -1.000000 -0.000000
vn 0.000000 -1.000000 -0.000000
vn 0.000000 -1.000000 -0.000000
vn 0.000000 -1.000000 -0.000000
vn 0.000000 -1.000000 -0.000000
vn 0.000000 -1.000000 -0.000000
vn 0.000000 -1.000000 -0.000000
vn 0.000000 -1.000000 -0.000000
vn 0.000000 -1.000000 -0.000000
vn 0.344667 -0.850286 0.397768
vn 0.344667 -0.850286 0.397768
vn 0.344667 -0.850286 0.397768
vn 0.344667 -0.850286 0.397768
vn 0.951057 0.000000 -0.309017
vn 0.951057 0.000000 -0.309017
vn 0.951056 0.000000 -0.309017
vn 0.951057 0.000000 -0.309017
vn 0.587784 0.000006 -0.809018
vn 0.587784 0.000006 -0.809018
vn 0.587784 0.000006 -0.809018
vn 0.587784 0.000006 -0.809018
vn 0.000000 0.000000 -1.000000
vn 0.000000 0.000000 -1.000000
vn 0.000000 0.000000 -1.000000
vn 0.000000 0.000000 -1.000000
vn -0.587784 0.000000 -0.809018
vn -0.587784 0.000000 -0.809018
vn -0.587784 0.000000 -0.809018
vn -0.587784 0.000000 -0.809018
vn -0.951056 0.000000 -0.309018
vn -0.951056 0.000000 -0.309018
vn -0.951056 0.000000 -0.309018
vn -0.951056 0.000000 -0.309018
vn -0.951057 -0.000000 0.309016
vn -0.951057 -0.000000 0.309016
vn -0.951057 -0.000000 0.309016
vn -0.951057 -0.000000 0.309016
vn -0.587783 -0.000000 0.809018
vn -0.587783 -0.000000 0.809018
vn -0.587783 -0.000000 0.809019
vn -0.587783 -0.000000 0.809019
vn 0.000000 -0.000000 1.000000
vn 0.000000 -0.000000 1.000000
vn 0.000000 -0.000000 1.000000
vn 0.000000 -0.000000 1.000000
vn 0.587785 -0.000004 0.809017
vn 0.587785 -0.000004 0.809017
vn 0.587785 -0.000004 0.809017
vn 0.587785 -0.000004 0.809017
vn 0.951057 -0.000000 0.309017
vn 0.951057 -0.000000 0.309017
vn 0.951057 -0.000000 0.309017
vn 0.951057 -0.000000 0.309017
vn 0.555827 -0.393075 0.732495
vn 0.555827 -0.393075 0.732495
vn 0.555827 -0.393075 0.732495
vn -0.020817 -0.393883 0.918925
vn -0.020817 -0.393883 0.918925
vn -0.020817 -0.393883 0.918925
vn -0.046332 -0.849940 0.524839
vn -0.046332 -0.849940 0.524839
vn -0.046332 -0.849940 0.524839
vn -0.046332 -0.849940 0.524839
vn 0.000000 -1.000000 -0.000000
vn 0.000000 -1.000000 -0.000000
vn 0.000000 -1.000000 -0.000000
vn 0.951057 -0.000000 0.309017
vn 0.951057 -0.000000 0.309017
vn 0.951057 -0.000000 0.309017
vn 0.951057 -0.000000 0.309017
vn 0.587786 -0.000000 0.809017
vn 0.587786 -0.000000 0.809017
vn 0.587786 -0.000000 0.809017
vn 0.587786 -0.000000 0.809017
vn -0.128447 0.175007 0.976153
vn -0.128447 0.175007 0.976153
vn -0.128447 0.175007 0.976153
vn -0.434909 0.176134 0.883080
vn -0.434909 0.176134 0.883080
vn -0.434909 0.176134 0.883080
vn -0.951057 -0.000000 0.309016
vn -0.951057 -0.000000 0.309016
vn -0.951057 -0.000000 0.309016
vn -0.951057 -0.000000 0.309016
vn -0.536710 0.632228 -0.558775
vn -0.536710 0.632228 -0.558775
vn -0.536710 0.632228 -0.558775
vn -0.703880 0.679116 -0.208215
vn -0.703880 0.679116 -0.208215
vn -0.703880 0.679116 -0.208215
vn 0.000000 0.000000 -1.000000
vn 0.000000 0.000000 -1.000000
vn 0.000000 0.000000 -1.000000
vn 0.000000 0.000000 -1.000000
vn 0.587785 0.000004 -0.809017
vn 0.587784 0.000004 -0.809018
vn 0.587784 0.000004 -0.809018
vn 0.587785 0.000004 -0.809017
vn 0.951057 0.000000 -0.309017
vn 0.951057 0.000000 -0.309017
vn 0.951057 0.000000 -0.309017
vn 0.951057 0.000000 -0.309017
vn 0.000000 1.000000 0.000000
vn 0.000000 1.000000 0.000000
vn 0.000000 1.000000 0.000000
vn -0.276736 0.882233 -0.380896
vn -0.276736 0.882233 -0.380896
vn -0.276736 0.882233 -0.380896
vn -0.276736 0.882233 -0.380896
vn -0.587785 0.000004 -0.809017
vn -0.587785 0.000004 -0.809017
vn -0.587785 0.000004 -0.809017
vn -0.587785 0.000004 -0.809017
vn -0.951057 0.000003 -0.309017
vn -0.951057 0.000003 -0.309017
vn -0.951057 0.000003 -0.309017
vn -0.951057 0.000003 -0.309017
vn -0.447765 0.882236 -0.145487
vn -0.447765 0.882236 -0.145487
vn -0.447765 0.882236 -0.145487
vn -0.447765 0.882236 -0.145487
vn 0.000000 1.000000 0.000000
vn 0.000000 1.000000 0.000000
vn 0.000000 1.000000 0.000000
vn 0.000000 1.000000 0.000000
vn 0.000000 1.000000 0.000000
vn 0.000000 1.000000 0.000000
vn -0.276736 0.882234 0.380895
vn -0.276736 0.882234 0.380895
vn -0.276736 0.882234 0.380895
vn -0.276736 0.882234 0.380895
vn -0.587783 0.000004 0.809019
vn -0.587783 0.000004 0.809019
vn -0.587783 0.000004 0.809019
vn -0.587783 0.000004 0.809019
vn 0.000000 -0.000000 1.000000
vn 0.000000 -0.000000 1.000000
vn 0.000000 -0.000000 1.000000
vn 0.000000 -0.000000 1.000000
vn 0.000000 0.882232 0.470815
vn 0.000000 0.882232 0.470815
vn 0.000000 0.882232 0.470815
vn 0.000000 0.882232 0.470815
vn 0.000000 1.000000 0.000000
vn 0.000000 1.000000 0.000000
vn 0.000000 1.000000 0.000000
vn 0.000000 -0.000000 1.000000
vn 0.591601 -0.028962 0.805711
vn 0.591601 -0.028962 0.805711
vn 0.092504 -0.035769 0.995070
vn 0.092504 -0.035769 0.995070
vn 0.587785 -0.000000 0.809017
vn 0.398688 0.086086 0.913037
vn 0.398688 0.086086 0.913037
vn 0.398688 0.086086 0.913037
vn 0.350887 0.087900 0.932283
vn 0.350887 0.087900 0.932283
vn 0.350887 0.087900 0.932283
vn 0.587785 0.000000 0.809017
vn 0.587785 0.000000 0.809017
vn 0.587785 -0.000000 0.809017
vn 0.587785 -0.000000 0.809017
vn 0.951057 0.000000 0.309017
vn 0.951056 0.000000 0.309017
vn 0.951056 0.000000 0.309017
vn 0.951056 0.000000 0.309017
vn 0.951056 -0.000000 -0.309018
vn 0.951056 -0.000000 -0.309018
vn 0.951056 -0.000000 -0.309018
vn 0.951056 -0.000000 -0.309018
vn 0.587786 -0.000000 -0.809017
vn 0.587786 -0.000000 -0.809017
vn 0.587786 -0.000000 -0.809017
vn 0.587786 -0.000000 -0.809017
vn 0.000000 -0.000000 -1.000000
vn 0.000000 -0.000000 -1.000000
vn 0.000000 -0.000000 -1.000000
vn 0.000000 -0.000000 -1.000000
vn -0.295417 0.235837 -0.925802
vn -0.295417 0.235837 -0.925802
vn -0.295417 0.235837 -0.925802
vn -0.951057 -0.000000 0.309016
vn -0.951057 -0.000000 0.309016
vn -0.951057 -0.000000 0.309016
vn -0.951057 -0.000000 0.309016
vn -0.587785 -0.000000 0.809017
vn -0.587785 -0.000000 0.809017
vn -0.587785 -0.000000 0.809017
vn -0.587785 -0.000000 0.809017
vn 0.000000 -0.000000 1.000000
vn 0.000000 -0.000000 1.000000
vn -0.000000 0.000000 1.000000
vn -0.000000 0.000000 1.000000
vn 0.951057 0.000000 0.309017
vn 0.951057 0.000000 0.309017
vn 0.951057 -0.000000 0.309016
vn 0.951057 -0.000000 0.309016
vn 0.951056 0.000000 -0.309018
vn 0.951056 0.000000 -0.309018
vn 0.951056 0.000000 -0.309017
vn 0.951057 0.000000 -0.309017
vn 0.587786 0.000000 -0.809016
vn 0.587786 0.000000 -0.809016
vn 0.587786 0.000000 -0.809017
vn 0.587786 0.000000 -0.809017
vn 0.000000 0.000000 -1.000000
vn 0.000000 0.000000 -1.000000
vn 0.000000 0.000000 -1.000000
vn 0.000000 0.000000 -1.000000
vn -0.951057 0.000000 0.309016
vn -0.951057 0.000000 0.309016
vn -0.951057 -0.000000 0.309016
vn -0.951057 -0.000000 0.309016
vn -0.587785 0.000000 0.809017
vn -0.587785 0.000000 0.809017
vn -0.587785 -0.000000 0.809017
vn -0.587785 -0.000000 0.809017
vn 0.000000 0.000000 1.000000
vn -0.000000 -0.000000 1.000000
vn -0.000000 -0.000000 1.000000
vn 0.587785 -0.000000 0.809017
vn 0.587785 0.000000 0.809017
vn 0.587785 -0.000000 0.809017
vn 0.587785 -0.000000 0.809017
vn 0.587785 -0.000000 0.809017
vn -0.000000 -0.000000 1.000000
vn -0.000000 -0.000000 1.000000
vn -0.606650 0.025820 -0.794550
vn -0.606650 0.025820 -0.794550
vn -0.606650 0.025820 -0.794550
vn -0.587785 0.000000 -0.809017
vn -0.587785 0.000000 -0.809017
vn -0.951057 -0.000000 -0.309016
vn -0.951057 -0.000000 -0.309016
vn -0.951057 -0.000000 -0.309016
vn -0.951057 0.000000 -0.309016
vn -0.951057 0.000000 -0.309016
vn -0.951057 0.000000 -0.309016
vn -0.951057 0.000000 -0.309016
vn -0.951057 0.000000 -0.309016
vn -0.951057 0.000000 -0.309016
vn -0.951057 0.000000 -0.309016
vn -0.630270 -0.020094 -0.776116
vn -0.630270 -0.020094 -0.776116
vn -0.630270 -0.020094 -0.776116
vn -0.630270 -0.020094 -0.776116
vn -0.630270 -0.020094 -0.776116
vn -0.933224 0.275941 -0.230106
vn -0.933224 0.275941 -0.230106
vn -0.933224 0.275941 -0.230106
vn -0.224915 -0.077470 -0.971294
vn -0.224915 -0.077470 -0.971294
vn -0.224915 -0.077470 -0.971294
vn -0.608648 -0.099736 -0.787147
vn -0.608648 -0.099736 -0.787147
vn -0.608648 -0.099736 -0.787147
s off
g polySurface99 group10
usemtl tempRedHouse:initialShadingGroup
f 3/1/1 4/2/2 6/3/3 5/4/4
f 4/5/5 3/6/6 21/7/7 22/8/8
f 5/4/9 6/9/10 8/10/11 7/11/12
f 7/11/13 8/12/14 10/13/15 9/14/16
f 73/15/17 74/16/18 12/17/19 11/18/20
f 11/18/21 12/19/22 71/20/23 72/21/24
f 13/22/25 14/23/26 16/24/27 15/25/28
f 69/26/29 70/27/30 18/28/31 17/29/32
f 17/29/33 18/30/34 67/31/35 68/32/36
f 19/33/37 20/34/38 22/35/39 21/7/40
f 23/36/41 24/37/42 42/38/43 41/39/44
f 24/40/45 23/41/46 25/42/47 26/43/48
f 26/44/49 25/42/50 27/45/51 28/46/52
f 28/47/53 27/45/54 55/48/55 56/49/56
f 43/50/57 44/51/58 31/52/59 32/53/60
f 32/54/61 31/52/62 33/55/63 34/56/64
f 34/57/65 33/55/66 35/58/67 36/59/68
f 36/60/69 35/58/70 37/61/71 38/62/72
f 38/63/73 37/61/74 39/64/75 40/65/76
f 40/66/77 39/64/78 41/39/79 42/67/80
f 66/68/81 57/69/82 80/130/83 81/131/84
f 57/69/85 58/72/86 79/129/87 80/130/88
f 58/72/89 59/74/90 77/127/91 79/129/92
f 96/148/93 95/147/94 52/77/95 53/75/96
f 60/76/97 61/78/98 86/137/99 87/138/100
f 61/78/101 62/80/102 85/136/103 86/137/104
f 62/80/105 63/82/106 84/135/107 85/136/108
f 63/82/109 64/84/110 83/134/111 84/135/112
f 64/84/113 65/86/114 82/133/115 83/134/116
f 65/86/117 66/88/118 81/132/119 82/133/120
f 6/90/121 4/91/122 1/92/123
f 8/93/124 6/90/125 1/92/126
f 10/94/127 8/93/128 1/92/129
f 12/95/130 74/96/131 1/92/132
f 1/92/133 71/97/134 12/95/135
f 16/98/136 14/99/137 1/92/138
f 18/100/139 70/101/140 1/92/141
f 1/92/142 67/102/143 18/100/144
f 22/103/145 20/104/146 1/92/147
f 4/91/148 22/103/149 1/92/150
f 24/105/151 26/106/152 2/107/153
f 26/106/154 28/108/155 2/107/156
f 28/108/157 56/109/158 2/107/159
f 2/107/160 43/110/161 32/111/162
f 32/111/163 34/112/164 2/107/165
f 34/112/166 36/113/167 2/107/168
f 36/113/169 38/114/170 2/107/171
f 38/114/172 40/115/173 2/107/174
f 40/115/175 42/116/176 2/107/177
f 42/116/178 24/105/179 2/107/180
f 30/117/181 43/110/182 2/107/183
f 30/118/184 29/119/185 44/51/186 43/50/187
f 46/71/188 45/70/189 25/42/190 23/41/191
f 47/87/192 46/89/193 23/36/194 41/39/195
f 48/85/196 47/87/197 41/39/198 39/64/199
f 49/83/200 48/85/201 39/64/202 37/61/203
f 50/81/204 49/83/205 37/61/206 35/58/207
f 51/79/208 50/81/209 35/58/210 33/55/211
f 52/77/212 51/79/213 33/55/214 31/52/215
f 53/75/216 52/77/217 31/52/218 44/51/219
f 54/73/220 53/75/221 55/48/222 27/45/223
f 45/70/224 54/73/225 27/45/226 25/42/227
f 53/75/228 44/51/229 29/119/230
f 55/48/231 53/75/232 29/119/233
f 56/49/234 55/48/235 29/119/236 30/120/237
f 2/107/238 56/109/239 30/117/240
f 5/4/241 7/11/242 58/72/243 57/69/244
f 7/11/245 9/14/246 59/74/247 58/72/248
f 60/76/249 73/15/250 11/18/251
f 11/18/252 72/21/253 60/76/254
f 13/22/255 15/25/256 62/80/257 61/78/258
f 63/82/259 69/26/260 17/29/261
f 17/29/262 68/32/263 63/82/264
f 19/33/265 21/7/266 65/86/267 64/84/268
f 21/7/269 3/6/270 66/88/271 65/86/272
f 3/1/273 5/4/274 57/69/275 66/68/276
f 20/104/277 67/102/278 1/92/279
f 68/32/280 67/31/281 20/121/282 19/33/283
f 63/82/284 68/32/285 19/33/286 64/84/287
f 15/25/288 69/26/289 63/82/290 62/80/291
f 15/25/292 16/122/293 70/27/294 69/26/295
f 1/92/296 70/101/297 16/98/298
f 14/99/299 71/97/300 1/92/301
f 72/21/302 71/20/303 14/123/304 13/22/305
f 60/76/306 72/21/307 13/22/308 61/78/309
f 9/14/310 73/15/311 60/76/312 59/74/313
f 9/14/314 10/124/315 74/16/316 73/15/317
f 1/92/318 74/96/319 10/94/320
f 59/74/321 76/126/322 78/128/323
f 78/128/324 77/127/325 59/74/326
f 78/128/327 76/126/328 75/125/329
f 75/125/330 77/127/331 78/128/332
f 88/139/333 96/148/334 53/75/335 54/73/336
f 80/130/337 79/129/338 88/139/339 89/140/340
f 81/131/341 80/130/342 89/140/343 90/141/344
f 82/133/345 81/132/346 90/142/347 91/143/348
f 83/134/349 82/133/350 91/143/351 92/144/352
f 100/152/353 101/153/354 98/150/355
f 86/137/356 85/136/357 93/145/358 94/146/359
f 87/138/360 86/137/361 94/146/362 95/147/363
f 59/74/364 60/76/365 87/138/366 76/126/367
f 89/140/368 88/139/369 54/73/370 45/70/371
f 90/141/372 89/140/373 45/70/374 46/71/375
f 91/143/376 90/142/377 46/89/378 47/87/379
f 92/144/380 91/143/381 47/87/382 48/85/383
f 94/146/384 93/145/385 50/81/386 51/79/387
f 95/147/388 94/146/389 51/79/390 52/77/391
s 1
f 76/126/392 87/138/393 75/125/394
s 2
f 79/129/395 77/127/396 75/125/397
f 79/129/395 75/125/397 96/148/398 88/139/399
s 1
f 75/125/394 87/138/393 95/147/400 96/148/401
s off
f 98/150/402 99/151/403 92/144/404 48/85/405 49/83/406
f 93/145/407 100/152/408 98/150/409 49/83/410 50/81/411
f 85/136/412 84/135/413 97/149/414 100/152/415 93/145/416
f 84/135/417 83/134/418 92/144/419 99/151/420 97/149/421
f 99/151/422 98/150/423 101/153/424
f 97/149/425 101/153/426 100/152/427
f 99/151/428 101/153/429 97/149/430
