# This file uses centimeters as units for non-parametric coordinates.

mtllib lowe1.mtl
g default
v 0.986856 3.870087 -0.408768
v 0.755307 3.870087 -0.755306
v 0.408769 3.870087 -0.986855
v 0.000001 3.870087 -1.068164
v -0.408768 3.870087 -0.986856
v -0.755306 3.870087 -0.755307
v -0.986856 3.870087 -0.408769
v -1.068165 3.870087 -0.000000
v -0.986856 3.870087 0.408769
v -0.755307 3.870087 0.755306
v -0.408769 3.870087 0.986856
v -0.000000 3.870087 1.068164
v 0.408769 3.870087 0.986856
v 0.755307 3.870087 0.755307
v 0.986856 3.870087 0.408769
v 1.068165 3.870087 0.000000
v 0.000000 5.890086 0.000000
vt 0.732147 0.054962
vt 0.884784 0.177677
vt 0.500000 0.500000
vt 0.978842 0.349463
vt 1.000000 0.544167
vt 0.945038 0.732147
vt 0.822323 0.884784
vt 0.650537 0.978842
vt 0.455833 1.000000
vt 0.267853 0.945038
vt 0.115216 0.822322
vt 0.021158 0.650536
vt 0.000000 0.455833
vt 0.054962 0.267853
vt 0.177678 0.115216
vt 0.349463 0.021158
vt 0.544167 0.000000
vn 0.816722 0.467462 -0.338297
vn 0.625092 0.467462 -0.625092
vn -0.000007 1.000000 0.000001
vn 0.338298 0.467462 -0.816722
vn 0.000000 0.467462 -0.884013
vn -0.338296 0.467462 -0.816722
vn -0.625092 0.467462 -0.625092
vn -0.816722 0.467462 -0.338297
vn -0.884013 0.467462 -0.000000
vn -0.816722 0.467462 0.338297
vn -0.625092 0.467462 0.625092
vn -0.338297 0.467462 0.816722
vn 0.000000 0.467462 0.884013
vn 0.338297 0.467462 0.816722
vn 0.625092 0.467462 0.625092
vn 0.816722 0.467462 0.338297
vn 0.884013 0.467462 0.000001
s 1
g pCylinder6
usemtl initialShadingGroup
f 1/1/1 2/2/2 17/3/3
f 2/2/2 3/4/4 17/3/3
f 3/4/4 4/5/5 17/3/3
f 4/5/5 5/6/6 17/3/3
f 5/6/6 6/7/7 17/3/3
f 6/7/7 7/8/8 17/3/3
f 7/8/8 8/9/9 17/3/3
f 8/9/9 9/10/10 17/3/3
f 9/10/10 10/11/11 17/3/3
f 10/11/11 11/12/12 17/3/3
f 11/12/12 12/13/13 17/3/3
f 12/13/13 13/14/14 17/3/3
f 13/14/14 14/15/15 17/3/3
f 14/15/15 15/16/16 17/3/3
f 15/16/16 16/17/17 17/3/3
f 16/17/17 1/1/1 17/3/3
