# This file uses centimeters as units for non-parametric coordinates.

mtllib grass.mtl
g default
v -0.973716 -0.000000 0.973716
v 0.973716 -0.000000 0.973716
v -0.973716 0.000000 -0.973716
v 0.973716 0.000000 -0.973716
v 0.000000 0.349244 0.000000
vt 0.000000 0.000000
vt 1.000000 0.000000
vt 0.000000 1.000000
vt 1.000000 1.000000
vt 0.500000 0.500000
vn 0.173832 0.969312 -0.173832
vn -0.173832 0.969312 -0.173832
vn 0.000000 1.000000 0.000000
vn 0.173832 0.969312 0.173832
vn -0.173832 0.969312 0.173832
s 1
g pPlane1
usemtl initialShadingGroup
f 4/4/1 3/3/2 5/5/3
f 4/4/1 5/5/3 2/2/4
f 5/5/3 3/3/2 1/1/5
f 2/2/4 5/5/3 1/1/5
